<?xml version="1.0" encoding="UTF-8"?>
<svg width="112px" height="56px" viewBox="0 0 112 56" version="1.1" xmlns="http://www.w3.org/2000/svg" xmlns:xlink="http://www.w3.org/1999/xlink" xmlns:sketch="http://www.bohemiancoding.com/sketch/ns">
    <title>icon@2x</title>
    <description>Created with Sketch (http://www.bohemiancoding.com/sketch)</description>
    <defs></defs>
    <g id="Page-1" stroke="none" stroke-width="1" fill="none" fill-rule="evenodd" sketch:type="MSPage">
        <g id="Final-Black" sketch:type="MSLayerGroup" transform="translate(4.000000, 2.000000)" stroke="#000000" stroke-width="4.5125">
            <path d="M52.4506469,51.6249406 C26.565849,51.6249385 -0.322644464,25.8962063 -0.322644464,25.8962063 C-0.322644464,25.8962063 19.7670562,1.51503662 52.4506469,0.248540038 C85.1342375,-1.01795659 104.958454,25.8962061 104.958454,25.8962063 C104.958454,25.8962068 78.3354447,51.624944 52.4506469,51.6249406 Z" id="Path-1" sketch:type="MSShapeGroup"></path>
            <path d="M23.2754832,7.99999267 C33.4346116,4.2359683 33.4392267,15.6624293 33.4392258,25.4128828 C33.4392251,35.1633363 33.2256871,40.7103303 47.6868518,40.7103291 C61.3590214,40.7103291 60.30003,30.8491393 60.3000404,25.4128828 C60.3000508,19.9766263 59.6830381,11.5597554 65.2475502,11.5597559 C70.8120622,11.5597562 70.8120519,19.6038163 70.8120622,25.4128828 C70.8120725,31.2219493 71.8294973,49.3422514 85.374377,40.7103308" id="Path-14" sketch:type="MSShapeGroup"></path>
        </g>
    </g>
</svg>